# xmcd CD database file
#
# Track frame offsets:
#	150
#	13510
#	27750
#	40642
#	53097
#	64492
#	77142
#	90422
#	104657
#	118337
#	132487
#	144685
#	156700
#	170845
#	183315
#
# Disc length: 2605 seconds
#
# Revision: 0
# Processed by: cddbd v1.5.2PL0 Copyright (c) Steve Scherf et al.
# Submitted via: CDex 1.51
#
DISCID=d80a2b0f
DTITLE=Ella Fitzgerald - Jazz
DYEAR=1900
DGENRE=Jazz
TTITLE0=I Got it Bad And That Ain't Good
TTITLE1=My Heart Belongs to Daddy
TTITLE2=What Can I Say After I Say I'm Sorry
TTITLE3=Cabin In The Sky
TTITLE4=Three Little Words
TTITLE5=Ella
TTITLE6=F.D.R. Jones
TTITLE7=I Must Have That Man
TTITLE8=My Melancholy Baby
TTITLE9=Goodnight My Love
TTITLE10=My Last Affair
TTITLE11=Wake Up and Live
TTITLE12=Darktown Strutter's Ball
TTITLE13=Shake Down The Stars
TTITLE14=I'm The Lonesomest Gal In Town
EXTD=
EXTT0=
EXTT1=
EXTT2=
EXTT3=
EXTT4=
EXTT5=
EXTT6=
EXTT7=
EXTT8=
EXTT9=
EXTT10=
EXTT11=
EXTT12=
EXTT13=
EXTT14=
PLAYORDER=
